<?xml version="1.0" standalone="no"?>
<!DOCTYPE svg PUBLIC "-//W3C//DTD SVG 20010904//EN"
 "http://www.w3.org/TR/2001/REC-SVG-20010904/DTD/svg10.dtd">
<svg version="1.0" xmlns="http://www.w3.org/2000/svg"
 width="300.000000pt" height="300.000000pt" viewBox="0 0 300.000000 300.000000"
 preserveAspectRatio="xMidYMid meet">
<metadata>
Created by potrace 1.10, written by Peter Selinger 2001-2011
</metadata>
<g transform="translate(0.000000,300.000000) scale(0.050000,-0.050000)"
fill="#01f9f5" stroke="none">
<path d="M2595 5310 c-1885 -317 -2599 -2684 -1203 -3988 1503 -1404 3947
-351 3948 1700 0 1441 -1306 2530 -2745 2288z m757 -181 c1115 -193 1862
-1122 1801 -2239 -83 -1529 -1731 -2486 -3103 -1801 -1602 799 -1613 3045 -19
3847 396 199 881 270 1321 193z"/>
<path d="M2770 5059 c-1721 -187 -2460 -2267 -1242 -3491 817 -821 2127 -821
2944 0 1230 1236 474 3307 -1275 3492 -206 21 -225 21 -427 -1z m326 -149 c29
-36 59 -50 109 -50 39 0 158 -22 265 -49 138 -36 205 -44 231 -30 78 41 179
-6 179 -84 0 -22 30 -52 78 -76 43 -22 146 -94 229 -160 95 -76 163 -116 182
-108 59 22 134 -49 128 -120 -4 -50 17 -99 88 -206 51 -77 111 -182 134 -234
22 -51 49 -93 60 -93 74 0 132 -161 78 -215 -18 -18 -18 -57 0 -163 13 -77 23
-197 23 -268 0 -102 8 -135 40 -164 58 -52 50 -121 -18 -172 -42 -31 -62 -66
-71 -125 -7 -46 -42 -160 -77 -253 -51 -135 -61 -181 -46 -224 26 -75 -28
-156 -106 -156 -45 0 -75 -24 -151 -120 -52 -67 -134 -154 -183 -195 -63 -53
-88 -88 -88 -126 0 -76 -64 -127 -141 -112 -48 10 -102 -7 -245 -76 -101 -49
-209 -95 -239 -102 -30 -7 -55 -23 -55 -35 0 -75 -149 -126 -197 -67 -31 36
-570 34 -607 -3 -52 -52 -196 -4 -196 66 0 13 -38 35 -85 49 -47 13 -155 59
-240 102 -119 59 -170 74 -221 66 -79 -13 -134 30 -134 103 0 31 -42 87 -128
170 -71 68 -153 159 -183 202 -42 60 -68 78 -111 78 -78 0 -133 81 -105 157
15 42 9 76 -29 163 -26 61 -65 176 -86 257 -27 105 -52 158 -88 186 -61 48
-65 124 -10 172 33 28 40 59 40 176 0 78 10 194 21 258 16 86 16 130 -2 173
-31 76 -9 154 52 182 29 13 67 60 88 109 21 47 81 151 133 231 64 98 94 164
90 200 -6 67 63 141 125 133 29 -4 85 27 160 88 64 52 164 124 224 160 59 36
108 78 108 93 2 76 138 135 192 84 11 -11 92 1 199 29 99 26 213 47 254 48 49
1 93 18 130 50 73 65 152 65 202 1z"/>
<path d="M2959 4869 c-42 -51 27 -111 74 -64 33 32 11 95 -33 95 -8 0 -27 -14
-41 -31z"/>
<path d="M2620 4771 c-190 -42 -260 -71 -260 -109 0 -80 -139 -135 -195 -79
-58 58 -444 -245 -430 -339 11 -71 -74 -150 -142 -133 -78 18 -311 -393 -261
-460 52 -72 10 -191 -68 -191 -77 0 -111 -498 -37 -546 64 -42 72 -135 17
-190 -63 -63 83 -524 165 -524 67 0 113 -63 108 -146 -6 -80 3 -94 202 -299
119 -124 135 -134 194 -123 75 14 147 -44 147 -119 0 -39 26 -58 155 -117 266
-122 274 -124 333 -85 66 43 146 24 176 -42 35 -77 493 -77 544 1 44 66 119
83 184 41 81 -54 488 121 488 210 0 68 76 125 149 113 60 -10 77 1 194 123
196 203 206 217 200 297 -5 80 40 146 101 146 78 0 227 453 170 516 -50 54
-42 138 16 192 57 53 61 104 29 346 -19 142 -27 161 -90 213 -75 62 -87 120
-37 175 57 63 -195 492 -273 468 -56 -18 -146 77 -134 142 15 79 -378 383
-430 331 -58 -58 -195 0 -195 83 0 34 -57 54 -300 106 -174 37 -207 35 -250
-12 -20 -22 -60 -40 -90 -40 -30 0 -70 18 -90 40 -42 46 -121 49 -290 11z
m671 -182 c1297 -226 1793 -1820 846 -2720 -1050 -999 -2754 -287 -2757 1152
-1 1006 898 1745 1911 1568z"/>
<path d="M3309 4319 c-7 -12 -26 -17 -41 -11 -16 6 -28 -2 -28 -17 0 -16 -10
-35 -23 -43 -16 -10 -18 -5 -6 14 22 36 -53 -19 -77 -57 -9 -14 -36 -25 -60
-25 -33 -1 -37 -5 -16 -18 21 -14 15 -25 -30 -49 -32 -17 -50 -32 -40 -32 9
-1 -18 -33 -60 -73 -43 -39 -76 -79 -73 -89 2 -10 -9 -12 -25 -6 -17 6 -30 1
-30 -12 0 -13 -9 -18 -20 -11 -11 7 -20 -2 -20 -19 0 -17 -14 -31 -31 -31 -17
0 -26 -9 -19 -20 7 -11 -2 -20 -19 -20 -17 0 -31 -9 -31 -21 0 -59 -421 -98
-504 -47 -12 8 -17 6 -11 -4 7 -11 -75 -19 -194 -19 -279 0 -380 -66 -419
-275 -16 -84 37 -233 83 -233 14 -1 25 -11 25 -22 0 -12 7 -17 16 -11 28 17
84 -65 70 -103 -13 -36 -105 -167 -130 -185 -7 -6 -18 -37 -24 -69 -6 -32 -20
-67 -31 -78 -111 -111 76 -400 259 -400 33 0 60 -5 60 -12 0 -7 17 -12 39 -12
21 0 34 6 29 14 -5 8 27 14 70 12 44 -2 75 -10 69 -19 -5 -9 12 -8 38 2 29 11
61 11 81 -1 19 -11 43 -14 53 -7 11 6 89 15 175 21 86 5 159 17 162 28 4 10
19 14 35 8 16 -6 25 -18 19 -26 -5 -9 17 -13 50 -9 32 4 63 -1 70 -11 17 -28
127 17 139 56 14 42 124 110 151 93 12 -7 14 -23 6 -36 -7 -13 2 -11 21 4 20
16 34 20 32 10 -8 -41 3 -56 21 -28 16 24 19 22 20 -14 0 -25 19 -55 42 -67
35 -19 40 -18 27 4 -13 21 -11 22 12 4 37 -29 121 -40 154 -20 16 10 25 4 25
-14 0 -19 17 -28 47 -24 62 6 93 27 93 61 0 56 125 60 230 6 38 -20 107 -30
185 -29 72 2 125 -6 125 -17 0 -11 8 -8 18 7 10 16 33 22 57 15 22 -7 66 -2
97 11 32 13 64 24 72 25 18 3 78 70 120 135 52 80 68 242 28 282 -18 18 -32
42 -32 54 0 11 -12 21 -28 21 -15 0 -32 18 -38 39 -5 21 -26 39 -47 38 -160
-1 -317 18 -315 39 1 13 3 43 5 66 2 28 13 39 32 31 18 -7 25 -1 19 15 -11 29
87 58 122 36 32 -20 90 -4 171 47 41 26 80 43 87 38 7 -5 8 -3 3 4 -5 7 0 30
11 51 56 105 13 277 -95 380 -52 48 -239 132 -217 96 5 -9 -8 -20 -30 -26 -22
-6 -36 -3 -30 5 30 50 -286 8 -407 -54 -70 -36 -134 -60 -143 -55 -10 6 -23 1
-30 -10 -14 -23 -88 10 -120 54 -12 16 -66 35 -120 43 -69 11 -98 24 -94 43 5
22 1 22 -25 1 -26 -22 -31 -20 -31 8 0 21 -9 28 -25 19 -14 -8 -7 6 15 32 24
28 28 40 10 30 -19 -10 -15 0 9 27 21 25 49 40 63 35 14 -5 22 5 19 24 -2 18
7 45 22 60 15 15 22 35 16 46 -6 10 5 18 25 18 23 0 46 24 61 62 14 39 31 56
47 47 15 -9 20 -4 13 13 -5 15 5 46 22 68 18 22 -114 -103 -292 -277 -240
-234 -335 -315 -362 -308 -21 5 -54 1 -75 -10 -50 -27 21 51 332 365 275 278
332 340 314 340 -6 0 -18 -10 -25 -21z m-769 -788 c0 -4 -114 -177 -252 -384
-139 -207 -256 -385 -261 -397 -5 -13 74 -18 231 -14 l238 6 7 -103 c4 -56 3
-106 -1 -111 -12 -11 -902 -10 -902 1 0 5 115 178 256 385 140 207 263 388
273 404 14 23 -24 25 -236 13 l-253 -15 0 112 0 112 450 0 c248 0 450 -4 450
-9z m759 -33 c210 -118 209 -493 -2 -585 l-52 -23 127 -176 c155 -213 155
-194 -1 -194 l-130 0 -121 180 c-114 169 -125 180 -191 180 l-69 0 0 -180 0
-180 -120 0 -120 0 0 510 0 510 302 0 c270 0 311 -5 377 -42z m1061 -68 l0
-110 -241 0 c-324 0 -339 -13 -339 -290 0 -277 15 -290 339 -290 l241 0 0
-110 0 -110 -231 0 c-494 0 -576 79 -565 540 9 421 74 480 530 480 l266 0 0
-110z"/>
<path d="M2860 3208 l0 -132 161 7 c177 8 198 22 199 131 0 93 -59 126 -224
126 l-136 0 0 -132z"/>
<path d="M3445 2204 c-37 -40 -66 -58 -66 -42 -1 15 -11 6 -23 -22 -12 -30
-24 -40 -30 -25 -14 38 -46 9 -46 -41 -1 -36 -4 -38 -20 -14 -11 17 -21 23
-22 15 -13 -71 -42 -115 -75 -117 -22 -1 -24 -5 -7 -12 20 -7 20 -16 2 -38
-31 -37 -65 -36 -51 2 7 17 4 30 -5 30 -20 0 -48 -77 -43 -117 2 -15 -5 -22
-16 -15 -17 11 -52 -45 -37 -60 3 -4 122 110 264 252 142 142 254 262 249 267
-5 4 -38 -24 -74 -63z"/>
<path d="M3294 1883 c-96 -98 -174 -183 -174 -190 0 -7 47 34 105 92 58 57
144 143 193 190 48 47 79 85 68 85 -10 0 -97 -80 -192 -177z"/>
<path d="M2199 4709 c-38 -46 24 -108 70 -70 41 34 39 55 -7 80 -28 15 -44 12
-63 -10z"/>
<path d="M3709 4698 c-27 -44 46 -91 83 -54 38 38 22 76 -32 76 -21 0 -44 -10
-51 -22z"/>
<path d="M1571 4262 c-19 -31 12 -84 47 -78 50 10 54 96 5 96 -23 0 -46 -8
-52 -18z"/>
<path d="M4343 4237 c5 -31 20 -47 47 -47 60 0 54 78 -7 87 -38 5 -45 -2 -40
-40z"/>
<path d="M1195 3595 c-15 -40 6 -75 45 -75 38 0 60 35 45 75 -4 14 -25 25 -45
25 -19 0 -40 -11 -45 -25z"/>
<path d="M4734 3607 c-34 -34 -14 -90 31 -83 29 4 45 20 45 46 0 39 -49 64
-76 37z"/>
<path d="M1123 2817 c9 -61 87 -67 87 -7 0 27 -16 42 -47 47 -38 5 -45 -2 -40
-40z"/>
<path d="M4787 2829 c-7 -18 -3 -41 9 -53 31 -31 84 -4 84 43 0 50 -75 57 -93
10z"/>
<path d="M1385 2126 c-31 -11 -33 -79 -3 -97 40 -25 92 46 57 79 -16 15 -40
23 -54 18z"/>
<path d="M4558 2108 c-20 -24 -18 -36 7 -61 36 -37 75 -20 75 32 0 49 -51 66
-82 29z"/>
<path d="M4045 1566 c-41 -15 -30 -86 14 -86 21 0 45 10 52 22 17 28 -33 76
-66 64z"/>
<path d="M1886 1528 c-12 -33 29 -72 64 -61 11 3 23 26 26 50 8 52 -70 62 -90
11z"/>
<path d="M2580 1221 c0 -54 38 -72 74 -35 37 36 19 74 -35 74 -25 0 -39 -14
-39 -39z"/>
<path d="M3329 1238 c-8 -12 0 -36 18 -53 37 -38 98 -2 80 46 -13 34 -79 39
-98 7z"/>
</g>
</svg>
